<?xml version="1.0" standalone="no"?>
<!DOCTYPE svg PUBLIC "-//W3C//DTD SVG 20010904//EN"
 "http://www.w3.org/TR/2001/REC-SVG-20010904/DTD/svg10.dtd">
<svg version="1.0" xmlns="http://www.w3.org/2000/svg"
 width="419.000000pt" height="419.000000pt" viewBox="0 0 419.000000 419.000000"
 preserveAspectRatio="xMidYMid meet">
<metadata>
Created by potrace 1.11, written by Peter Selinger 2001-2013
</metadata>
<g transform="translate(0.000000,419.000000) scale(0.100000,-0.100000)"
fill="#000000" stroke="none">
<path d="M2020 3455 c-46 -69 -81 -127 -79 -130 3 -2 23 -5 46 -6 l41 -3 7
-430 c3 -237 5 -486 3 -552 l-3 -122 -463 283 c-254 155 -465 284 -468 287 -3
3 4 21 15 39 12 19 21 37 21 42 0 4 -70 7 -155 7 -85 0 -155 -3 -155 -6 0 -11
128 -274 133 -274 3 0 14 13 24 30 l19 30 473 -274 c261 -151 478 -279 482
-283 5 -5 -197 -130 -458 -285 l-468 -275 -21 46 -21 46 -70 -145 c-39 -80
-69 -147 -67 -149 3 -4 297 -20 301 -17 1 1 -9 19 -23 40 -14 21 -24 39 -22
41 1 2 163 102 358 222 195 121 404 250 464 287 l108 67 -6 -303 c-3 -167 -9
-414 -12 -550 l-6 -248 -34 0 c-19 0 -34 -2 -34 -5 0 -3 35 -57 77 -120 61
-92 79 -113 89 -103 6 7 41 60 78 118 l66 105 -41 5 -42 5 2 545 c1 299 3 545
4 547 1 1 204 -125 450 -279 l448 -281 -19 -21 c-42 -46 -42 -46 117 -46 l150
0 -8 28 c-5 15 -21 56 -36 92 -15 36 -34 81 -43 100 l-14 35 -32 -37 -32 -36
-461 281 c-254 155 -459 285 -455 289 10 10 934 558 940 558 3 0 17 -14 31
-31 l26 -31 57 128 c32 70 57 128 55 130 -1 1 -66 5 -145 9 l-142 8 25 -45 25
-44 -466 -283 c-256 -155 -466 -281 -467 -279 -2 4 9 1102 11 1106 1 1 20 2
43 2 l41 0 -23 38 c-61 101 -142 222 -149 222 -4 0 -45 -56 -90 -125z"/>
</g>
</svg>
